<?xml version="1.0" encoding="UTF-8" standalone="no"?>
<!-- Created with Inkscape (http://www.inkscape.org/) -->

<svg
   width="512"
   height="512"
   viewBox="0 0 135.46666 135.46667"
   version="1.1"
   id="svg1"
   xml:space="preserve"
   inkscape:version="1.3 (0e150ed6c4, 2023-07-21)"
   sodipodi:docname="logo.svg"
   inkscape:export-filename="logo.png"
   inkscape:export-xdpi="96"
   inkscape:export-ydpi="96"
   xmlns:inkscape="http://www.inkscape.org/namespaces/inkscape"
   xmlns:sodipodi="http://sodipodi.sourceforge.net/DTD/sodipodi-0.dtd"
   xmlns="http://www.w3.org/2000/svg"
   xmlns:svg="http://www.w3.org/2000/svg"><sodipodi:namedview
     id="namedview1"
     pagecolor="#ffffff"
     bordercolor="#000000"
     borderopacity="0.25"
     inkscape:showpageshadow="2"
     inkscape:pageopacity="0.0"
     inkscape:pagecheckerboard="0"
     inkscape:deskcolor="#d1d1d1"
     inkscape:document-units="mm"
     showguides="true"
     inkscape:zoom="0.69397447"
     inkscape:cx="239.92237"
     inkscape:cy="346.55454"
     inkscape:window-width="2560"
     inkscape:window-height="1017"
     inkscape:window-x="1912"
     inkscape:window-y="-8"
     inkscape:window-maximized="1"
     inkscape:current-layer="layer1" /><defs
     id="defs1" /><g
     inkscape:label="Layer 1"
     inkscape:groupmode="layer"
     id="layer1"><g
       id="g24"
       transform="matrix(0.82056908,0,0,0.82056908,11.460469,8.6878101)"
       style="stroke-width:1.21867"><path
         id="path1"
         style="fill:#ffe680;stroke:#000000;stroke-width:0.322438"
         d="m 68.577858,120.54834 c -15.399765,0 -29.126211,-7.16336 -38.02815,-18.33932 -6.60986,-8.298361 -10.559802,-18.809006 -10.559802,-30.242086 0,-26.830769 21.753567,-48.581405 48.587952,-48.581405 z"
         sodipodi:nodetypes="csscc"
         inkscape:transform-center-x="24.293977" /><path
         id="path8"
         style="fill:#dc8add;stroke:#000000;stroke-width:0.322438"
         d="M 102.9301,106.31918 C 92.040821,117.20845 77.269498,121.84926 63.072279,120.24128 52.530575,119.04733 42.305396,114.40821 34.220987,106.3238 15.248769,87.351586 15.250841,56.589469 34.225617,37.614694 Z"
         sodipodi:nodetypes="csscc"
         inkscape:transform-center-x="7.116219"
         inkscape:transform-center-y="7.116219" /><path
         id="path9"
         style="fill:#f66151;stroke:#000000;stroke-width:0.322438"
         d="m 117.15927,71.966937 c -1e-5,15.39976 -7.16336,29.126213 -18.339327,38.028143 -8.298361,6.60986 -18.809007,10.5598 -30.242089,10.5598 -26.830765,1e-5 -48.581401,-21.75356 -48.581401,-48.587945 z"
         sodipodi:nodetypes="csscc"
         inkscape:transform-center-x="-3.1055885e-06"
         inkscape:transform-center-y="24.293974" /><path
         id="path10"
         style="fill:#62a0ea;stroke:#000000;stroke-width:0.322438"
         d="m 102.93011,37.614691 c 10.88926,10.889281 15.53008,25.660603 13.92209,39.85782 -1.19395,10.541704 -5.83307,20.766882 -13.91748,28.851289 -18.972207,18.97223 -49.734327,18.97015 -68.709102,-0.005 z"
         sodipodi:nodetypes="csscc"
         inkscape:transform-center-x="-7.1162186"
         inkscape:transform-center-y="7.1161954" /><path
         id="path11"
         style="fill:#57e389;stroke:#000000;stroke-width:0.322438"
         d="m 68.577864,23.38552 c 15.399754,1.5e-5 29.126212,7.163362 38.028136,18.339331 6.60986,8.29836 10.5598,18.809006 10.5598,30.242086 2e-5,26.830769 -21.753557,48.581403 -48.588206,48.581133 z"
         sodipodi:nodetypes="csscc"
         inkscape:transform-center-x="-24.293839"
         inkscape:transform-center-y="-0.00013908577" /><path
         style="fill:#333333;fill-opacity:1;stroke:#333333;stroke-width:2.43733;stroke-dasharray:none;stroke-opacity:1"
         d="M 68.577858,71.966934 100.28753,45.291141"
         id="path3"
         sodipodi:nodetypes="cc" /><path
         style="fill:#333333;fill-opacity:1;stroke:#333333;stroke-width:2.43733;stroke-dasharray:none;stroke-opacity:1"
         d="M 68.577858,71.966934 84.432694,86.538431"
         id="path4"
         sodipodi:nodetypes="cc" /><circle
         style="fill:#333333;stroke:#000000;stroke-width:0.322438"
         id="path2"
         cx="68.577858"
         cy="71.966934"
         r="5.6613927" /></g><path
       style="fill:#000000;stroke-width:1"
       d="m 66.029592,135.14152 c -0.418306,-0.33433 -0.858204,-1.47071 -2.615615,-6.75685 -1.162007,-3.49522 -2.229685,-6.58658 -2.37262,-6.8697 -0.142929,-0.28312 -0.491515,-0.63351 -0.774638,-0.77864 -0.885269,-0.45378 -7.56482,-1.86401 -8.214269,-1.73424 -0.447941,0.0895 -1.82207,1.34877 -5.775125,5.29242 -3.724495,3.71563 -5.307272,5.17497 -5.612698,5.17497 -0.233962,0 -0.696632,-0.13797 -1.028162,-0.30659 -1.535423,-0.78096 -9.682605,-5.42474 -9.994695,-5.69684 -0.794321,-0.69256 -0.770188,-0.88031 1.007639,-7.83946 0.933861,-3.65551 1.697935,-6.873 1.697935,-7.14996 0,-0.79175 -0.274595,-1.15817 -2.969975,-3.96324 -2.671155,-2.77985 -3.053363,-3.09081 -3.810546,-3.10028 -0.258984,-0.004 -3.461974,0.67066 -7.117767,1.49754 -5.951419,1.34611 -6.70732,1.47876 -7.224441,1.26775 -0.504613,-0.2059 -0.931754,-0.92007 -3.3826223,-5.65574 -1.9621937,-3.791419 -2.8050854,-5.607893 -2.8050854,-6.045121 0,-0.712756 0.3935051,-1.121289 6.8221507,-7.082709 2.608468,-2.418884 3.774932,-3.627803 3.917654,-4.060268 0.166733,-0.505211 0.0811,-1.269876 -0.476751,-4.257192 C 14.692419,73.823972 14.564653,73.379868 14.100823,72.90914 13.703396,72.505811 12.018993,71.810183 6.9169732,69.942363 3.2513914,68.600412 0.1679449,67.418119 0.06487386,67.315045 -0.29925258,66.950922 0.96573998,54.796873 1.467463,53.838941 1.5785425,53.626869 1.8319738,53.351836 2.0306555,53.227757 2.2293444,53.103678 5.4536406,52.449154 9.1957763,51.773258 12.937905,51.097362 16.1393,50.469045 16.309977,50.376998 c 0.170677,-0.09205 0.488782,-0.365844 0.706897,-0.608437 0.556686,-0.61915 2.711162,-5.90589 2.711162,-6.652747 0,-0.512773 -0.714684,-1.562176 -4.229664,-6.210583 -2.32632,-3.076452 -4.281431,-5.756631 -4.344694,-5.955952 -0.06328,-0.199321 -0.05496,-0.55157 0.01844,-0.782776 0.180088,-0.56741 7.922852,-10.161229 8.433779,-10.450037 0.222587,-0.125819 0.584528,-0.231765 0.804316,-0.235435 0.219789,-0.0037 3.381462,1.228042 7.025944,2.73714 5.596169,2.31725 6.719942,2.723271 7.22847,2.611671 0.826376,-0.181351 5.111744,-3.186081 5.37826,-3.771018 0.30334,-0.665763 0.283493,-1.273042 -0.275528,-8.429986 C 39.27531,6.3292684 39.273701,6.2484866 39.630894,5.7700701 39.927159,5.3732505 41.12861,4.8980097 46.293552,3.1346207 c 5.464431,-1.8656385 6.388746,-2.1303821 6.960324,-1.9935793 0.602181,0.1441272 1.003546,0.653665 4.647223,5.8997133 2.193472,3.1580793 4.21994,5.9413583 4.503263,6.1850653 0.499082,0.429293 0.602146,0.441117 3.306502,0.379342 2.687066,-0.06138 2.808788,-0.08136 3.257854,-0.534631 0.256571,-0.258978 1.945017,-3.2223476 3.752101,-6.5852658 2.727157,-5.0751328 3.380728,-6.15944248 3.845213,-6.37941896 0.519819,-0.2461831 1.019891,-0.1549269 7.034772,1.28374376 3.56135,0.8518214 6.603259,1.6169853 6.759806,1.7003647 0.941712,0.5015728 0.933291,0.4459362 1.221191,8.0714843 0.149186,3.951602 0.350978,7.332628 0.448418,7.51339 0.302479,0.561098 0.995587,1.082563 2.776811,2.089142 1.102908,0.623259 1.938994,0.970559 2.336507,0.970559 0.450953,0 2.273236,-0.919534 6.711953,-3.386892 3.35111,-1.862791 6.28325,-3.428863 6.51584,-3.48016 0.2326,-0.0513 0.64421,0.01076 0.91468,0.137892 0.27048,0.127139 2.62247,2.406045 5.22666,5.064236 4.16608,4.252487 4.73487,4.904467 4.73487,5.427381 0,0.737921 0.22738,0.311724 -3.7918,7.107408 -2.70055,4.566136 -3.36542,5.825535 -3.36542,6.374834 0,0.645539 1.14198,3.052797 2.11825,4.465228 0.67172,0.971816 1.02174,1.039335 7.50945,1.448579 3.35464,0.211611 6.54709,0.43362 7.09432,0.493353 1.80006,0.196486 1.72974,0.03803 3.3698,7.592638 1.3247,6.101982 1.42423,6.706686 1.17796,7.157217 -0.20388,0.372996 -1.7945,1.26712 -6.57155,3.694022 -4.39424,2.23242 -6.4146,3.357338 -6.67257,3.715231 -0.2969,0.41188 -0.40295,1.00741 -0.53664,3.013566 -0.20115,3.018269 -0.12795,3.487994 0.65899,4.228854 0.33559,0.315947 2.99629,2.32842 5.91267,4.472161 3.88385,2.854902 5.36531,4.049335 5.53725,4.464424 0.21821,0.526794 0.077,1.000328 -2.00414,6.722497 -2.27527,6.255797 -2.65009,7.003349 -3.51152,7.003349 -0.24069,0 -3.18745,-0.296649 -6.54835,-0.659216 -3.3609,-0.362575 -6.51287,-0.659216 -7.00439,-0.659216 -1.10815,0 -1.48024,0.346621 -3.69385,3.440974 -1.27056,1.77609 -1.56689,2.31994 -1.58218,2.90374 -0.0131,0.49953 0.73559,2.69259 2.45803,7.20023 1.36225,3.56505 2.47683,6.64305 2.47683,6.83999 0,0.82468 -0.0592,0.8761 -7.4189,6.44339 -2.89222,2.18784 -3.23724,2.39724 -3.79955,2.30598 -0.44677,-0.0725 -2.06045,-1.26779 -5.812291,-4.30529 -2.957681,-2.39455 -5.514859,-4.32289 -5.939502,-4.47891 -0.738546,-0.27135 -0.777741,-0.26183 -4.096808,0.99544 -2.236483,0.84718 -3.522967,1.44025 -3.867752,1.78305 -0.472871,0.47013 -0.639077,1.09576 -1.962272,7.38604 -0.795104,3.77983 -1.567749,7.06232 -1.716985,7.29446 -0.149235,0.23212 -0.579942,0.50077 -0.957117,0.59699 -1.036861,0.26452 -6.364365,0.76902 -9.443952,0.89432 -2.593561,0.10552 -2.756358,0.0909 -3.23392,-0.2908 z m 7.227899,-28.19326 c 17.139264,-2.39051 30.543309,-15.376207 33.717029,-32.664693 0.55102,-3.001646 0.59586,-9.841583 0.0844,-12.878774 C 104.11688,43.933322 90.575717,30.661658 73.221925,28.241222 70.404162,27.848211 65.306264,27.847002 62.498067,28.238622 42.767598,30.990548 28.203658,47.70509 28.203658,67.597167 c 0,19.767836 14.485393,36.512353 34.031525,39.339043 2.589205,0.37444 8.378481,0.38074 11.022278,0.012 z"
       id="path34" /></g></svg>
